HIERARCHY
ROOT hip
{
  OFFSET 0.16443 81.3425 72.2984
  CHANNELS 6 Xposition Yposition Zposition Zrotation Xrotation Yrotation
  JOINT abdomen
  {
    OFFSET 0 20.6881 -0.73152
    CHANNELS 3 Zrotation Xrotation Yrotation
    JOINT chest
    {
      OFFSET 0 11.7043 -0.48768
      CHANNELS 3 Zrotation Xrotation Yrotation
      JOINT neck
      {
        OFFSET 0 22.1894 -2.19456
        CHANNELS 3 Zrotation Xrotation Yrotation
        JOINT head
        {
          OFFSET -0.24384 7.07133 1.2192
          CHANNELS 3 Zrotation Xrotation Yrotation
          JOINT leftEye
          {
            OFFSET 4.14528 8.04674 8.04672
            CHANNELS 3 Zrotation Xrotation Yrotation
            End Site
            {
              OFFSET 1 0 0
            }
          }
          JOINT rightEye
          {
            OFFSET -3.6576 8.04674 8.04672
            CHANNELS 3 Zrotation Xrotation Yrotation
            End Site
            {
              OFFSET 1 0 0
            }
          }
        }
      }
      JOINT rCollar
      {
        OFFSET -2.68224 19.2634 -4.8768
        CHANNELS 3 Zrotation Xrotation Yrotation
        JOINT rShldr
        {
          OFFSET -8.77824 -1.95073 1.46304
          CHANNELS 3 Zrotation Xrotation Yrotation
          JOINT rForeArm
          {
            OFFSET -28.1742 -1.7115 0.48768
            CHANNELS 3 Zrotation Xrotation Yrotation
            JOINT rHand
            {
              OFFSET -22.5879 0.773209 7.07136
              CHANNELS 3 Zrotation Xrotation Yrotation
              JOINT rThumb1
              {
                OFFSET -1.2192 -0.487915 3.41376
                CHANNELS 3 Zrotation Xrotation Yrotation
                JOINT rThumb2
                {
                  OFFSET -3.37035 -0.52449 3.41376
                  CHANNELS 3 Zrotation Xrotation Yrotation
                  End Site
                  {
                    OFFSET -1.78271 -1.18214 1.43049
                  }
                }
              }
              JOINT rIndex1
              {
                OFFSET -7.75947 0.938293 5.60832
                CHANNELS 3 Zrotation Xrotation Yrotation
                JOINT rIndex2
                {
                  OFFSET -2.54057 -0.884171 1.56538
                  CHANNELS 3 Zrotation Xrotation Yrotation
                  End Site
                  {
                    OFFSET -1.62519 -0.234802 1.16502
                  }
                }
              }
              JOINT rMid1
              {
                OFFSET -8.24714 1.18213 3.41376
                CHANNELS 3 Zrotation Xrotation Yrotation
                JOINT rMid2
                {
                  OFFSET -3.10165 -0.590103 1.0647
                  CHANNELS 3 Zrotation Xrotation Yrotation
                  End Site
                  {
                    OFFSET -2.48547 -0.328903 0.83742
                  }
                }
              }
              JOINT rRing1
              {
                OFFSET -8.82822 0.546677 1.51678
                CHANNELS 3 Zrotation Xrotation Yrotation
                JOINT rRing2
                {
                  OFFSET -2.60934 -0.819778 -0.0198488
                  CHANNELS 3 Zrotation Xrotation Yrotation
                  End Site
                  {
                    OFFSET -2.33842 -0.294052 0.168128
                  }
                }
              }
              JOINT rPinky1
              {
                OFFSET -8.27202 -0.0477905 -0.4584
                CHANNELS 3 Zrotation Xrotation Yrotation
                JOINT rPinky2
                {
                  OFFSET -1.82734 -0.647385 -0.700984
                  CHANNELS 3 Zrotation Xrotation Yrotation
                  End Site
                  {
                    OFFSET -1.69225 -0.51767 -0.607171
                  }
                }
              }
            }
          }
        }
      }
      JOINT lCollar
      {
        OFFSET 2.68224 19.2634 -4.8768
        CHANNELS 3 Zrotation Xrotation Yrotation
        JOINT lShldr
        {
          OFFSET 8.77824 -1.95073 1.46304
          CHANNELS 3 Zrotation Xrotation Yrotation
          JOINT lForeArm
          {
            OFFSET 28.1742 -1.7115 0.48768
            CHANNELS 3 Zrotation Xrotation Yrotation
            JOINT lHand
            {
              OFFSET 22.5879 0.773209 7.07136
              CHANNELS 3 Zrotation Xrotation Yrotation
              JOINT lThumb1
              {
                OFFSET 1.2192 -0.487915 3.41376
                CHANNELS 3 Zrotation Xrotation Yrotation
                JOINT lThumb2
                {
                  OFFSET 3.37035 -0.52449 3.41376
                  CHANNELS 3 Zrotation Xrotation Yrotation
                  End Site
                  {
                    OFFSET 1.78271 -1.18214 1.43049
                  }
                }
              }
              JOINT lIndex1
              {
                OFFSET 7.75947 0.938293 5.60832
                CHANNELS 3 Zrotation Xrotation Yrotation
                JOINT lIndex2
                {
                  OFFSET 2.54057 -0.884171 1.56538
                  CHANNELS 3 Zrotation Xrotation Yrotation
                  End Site
                  {
                    OFFSET 1.62519 -0.234802 1.16502
                  }
                }
              }
              JOINT lMid1
              {
                OFFSET 8.24714 1.18213 3.41376
                CHANNELS 3 Zrotation Xrotation Yrotation
                JOINT lMid2
                {
                  OFFSET 3.10165 -0.590103 1.0647
                  CHANNELS 3 Zrotation Xrotation Yrotation
                  End Site
                  {
                    OFFSET 2.48547 -0.328903 0.83742
                  }
                }
              }
              JOINT lRing1
              {
                OFFSET 8.82822 0.546677 1.51678
                CHANNELS 3 Zrotation Xrotation Yrotation
                JOINT lRing2
                {
                  OFFSET 2.60934 -0.819778 -0.0198488
                  CHANNELS 3 Zrotation Xrotation Yrotation
                  End Site
                  {
                    OFFSET 2.33842 -0.294052 0.168128
                  }
                }
              }
              JOINT lPinky1
              {
                OFFSET 8.27202 -0.0477905 -0.4584
                CHANNELS 3 Zrotation Xrotation Yrotation
                JOINT lPinky2
                {
                  OFFSET 1.82734 -0.647385 -0.700984
                  CHANNELS 3 Zrotation Xrotation Yrotation
                  End Site
                  {
                    OFFSET 1.69225 -0.51767 -0.607171
                  }
                }
              }
            }
          }
        }
      }
    }
  }
  JOINT rButtock
  {
    OFFSET -8.77824 4.35084 1.2192
    CHANNELS 3 Zrotation Xrotation Yrotation
    JOINT rThigh
    {
      OFFSET 0 -1.70687 -2.19456
      CHANNELS 3 Zrotation Xrotation Yrotation
      JOINT rShin
      {
        OFFSET 0 -36.8199 0.73152
        CHANNELS 3 Zrotation Xrotation Yrotation
        JOINT rFoot
        {
          OFFSET 0.73152 -45.1104 -5.12064
          CHANNELS 3 Zrotation Xrotation Yrotation
          End Site
          {
            OFFSET -1.1221 -3.69964 12.103
          }
        }
      }
    }
  }
  JOINT lButtock
  {
    OFFSET 8.77824 4.35084 1.2192
    CHANNELS 3 Zrotation Xrotation Yrotation
    JOINT lThigh
    {
      OFFSET 0 -1.70687 -2.19456
      CHANNELS 3 Zrotation Xrotation Yrotation
      JOINT lShin
      {
        OFFSET 0 -36.8199 0.73152
        CHANNELS 3 Zrotation Xrotation Yrotation
        JOINT lFoot
        {
          OFFSET -0.73152 -45.1104 -5.12064
          CHANNELS 3 Zrotation Xrotation Yrotation
          End Site
          {
            OFFSET 1.1221 -3.69964 12.103
          }
        }
      }
    }
  }
}
MOTION
Frames:	5
Frame Time:	0.00833333
1.94093 82.2556 199.075 3.63081 0.0198466 -0.0700107 -4.77302 0.00925678 -0.128165 -1.31325 0.0404281 -0.226877 6.98637e-014 -1.59028e-015 1.2921e-015 2.10619e-013 -6.36111e-015 3.77846e-015 -0 0 0 -0 0 0 3.5088e-014 4.71337e-016 9.44227e-016 7.42673e-013 1.03927e-014 1.70955e-014 1.27434e-011 -3.4835e-012 1.65389e-013 1.4592e-010 5.64976e-012 2.96746e-012 3.44183e-010 4.69337e-012 6.80003e-012 5.94383e-010 8.10405e-012 1.17331e-011 3.44187e-010 4.69331e-012 6.79048e-012 7.73091 5.47488 0.417314 3.44181e-010 4.69271e-012 6.80639e-012 2.90554 0.965183 0.102902 3.44191e-010 4.6938e-012 6.80003e-012 10.2786 0.731801 0.0259123 3.44179e-010 4.69688e-012 6.80957e-012 2.22167 -0.733487 -0.20892 3.50853e-014 4.73667e-016 4.96962e-016 7.39502e-013 9.90196e-015 1.5704e-014 1.27583e-011 4.15957e-012 1.49486e-013 1.45937e-010 -2.01672e-012 3.02153e-012 3.44237e-010 4.64613e-012 6.82229e-012 5.94481e-010 8.01818e-012 1.17784e-011 3.44232e-010 4.64639e-012 6.82865e-012 -7.73091 5.47488 -0.417314 3.44236e-010 4.6455e-012 6.81593e-012 -2.90554 0.965183 -0.102902 3.4423e-010 4.6459e-012 6.82309e-012 -10.2786 0.731801 -0.0259123 3.44238e-010 4.64759e-012 6.81911e-012 -2.22167 -0.733487 0.20892 -2.03217e-016 0 -3.88251e-019 -3.15664 -1.94856 0.0347031 -0.00820908 -2.07871 -0.0671834 -0.470621 4.00263 0.134278 2.03217e-016 0 3.88251e-019 -4.06348 -11.8418 0.547662 -0.0161007 15.8338 -0.442581 0.593058 -4.0161 0.0187016 
1.7192 80.7189 190.945 0.89887 2.25102 48.4337 -5.09127 -3.95854 -1.14993 -0.671421 2.13606 -0.49983 -1.54837 5.27206 -0.592861 3.41946 -14.5584 0.726116 -0 0 0 -0 0 0 2.40641e-014 8.4702e-014 8.67703e-015 23.1982 0.98691 -0.68651 -3.47958 -1.45783 5.56121 0.209384 10.1819 1.35077 8.04655e-010 -1.48047e-010 -2.64516e-010 1.38071e-009 -2.45319e-010 -4.72182e-010 8.0466e-010 -1.48047e-010 -2.64527e-010 7.73091 5.47488 0.417314 8.04654e-010 -1.48047e-010 -2.64513e-010 2.90554 0.965183 0.102902 8.04663e-010 -1.48046e-010 -2.64517e-010 10.2786 0.731801 0.0259123 8.04651e-010 -1.48044e-010 -2.64508e-010 2.22167 -0.733487 -0.20892 2.40488e-014 8.47027e-014 8.3047e-015 -22.9793 3.6962 -1.52042 2.56748 -0.958399 -4.20927 -0.137079 8.37539 -1.1355 -3.69611e-010 -7.8037e-011 4.90761e-010 -6.24228e-010 -1.19992e-010 8.62394e-010 -3.69616e-010 -7.80377e-011 4.90768e-010 -7.73091 5.47488 -0.417314 -3.69613e-010 -7.80407e-011 4.90754e-010 -2.90554 0.965183 -0.102902 -3.69618e-010 -7.80388e-011 4.90761e-010 -10.2786 0.731801 -0.0259123 -3.69608e-010 -7.80375e-011 4.90758e-010 -2.22167 -0.733487 0.20892 -2.03217e-016 0 -3.88251e-019 -2.4016 -6.77732 -1.95084 -0.0290033 4.9983 0.0321191 -0.194815 -2.78173 1.51741 2.03217e-016 0 3.88251e-019 -3.54807 -15.4589 0.654937 -0.034303 19.8386 -0.441646 0.312719 -5.99855 -2.86225 
1.71443 80.7277 190.845 -3.63719 -1.15926 99.5393 -5.57969 -8.15337 -2.25052 0.030627 4.35212 -0.791039 -3.06416 10.8502 -1.23384 7.48268 -29.9435 1.66823 -0 0 0 -0 0 0 1.21559e-014 1.82492e-013 1.54773e-014 47.7411 2.04127 -1.40306 -6.85565 -2.95555 11.4578 -0.124444 20.9063 2.92551 1.35925e-009 -3.29471e-010 -5.80105e-010 2.32804e-009 -5.46383e-010 -1.03538e-009 1.35925e-009 -3.29471e-010 -5.80116e-010 7.73091 5.47488 0.417314 1.35925e-009 -3.2947e-010 -5.80104e-010 2.90554 0.965183 0.102902 1.35926e-009 -3.2947e-010 -5.80106e-010 10.2786 0.731801 0.0259123 1.35924e-009 -3.29469e-010 -5.80097e-010 2.22167 -0.733487 -0.20892 1.21277e-014 1.82491e-013 1.51884e-014 -47.0389 7.81629 -3.18464 5.16205 -1.97047 -8.71899 0.0960689 17.0286 -2.39531 -1.1955e-009 -1.75139e-010 1.05521e-009 -2.03372e-009 -2.70461e-010 1.85493e-009 -1.19551e-009 -1.7514e-010 1.05522e-009 -7.73091 5.47488 -0.417314 -1.1955e-009 -1.75146e-010 1.05521e-009 -2.90554 0.965183 -0.102902 -1.19551e-009 -1.75142e-010 1.05521e-009 -10.2786 0.731801 -0.0259123 -1.1955e-009 -1.75141e-010 1.05521e-009 -2.22167 -0.733487 0.20892 -2.03217e-016 0 -3.88251e-019 -1.97355 -11.8707 -4.10384 -0.0781562 12.4804 0.140184 0.45623 -9.95023 3.01555 2.03217e-016 0 3.88251e-019 -2.9886 -19.2899 0.771957 -0.0536489 24.0684 -0.442995 -0.201295 -8.06586 -5.93103 
1.799 80.7376 190.737 -2.76668 -8.31478 144.869 -6.1602 -11.8779 -3.255 0.672506 6.32652 -1.0511 -4.30691 15.8093 -1.84071 11.7228 -43.6415 2.91408 -0 0 0 -0 0 0 2.01633e-015 2.53163e-013 2.41426e-014 69.6656 2.95903 -2.06198 -9.60116 -4.20896 16.7246 -1.00663 30.4723 4.62899 1.7256e-009 -4.53527e-010 -8.07149e-010 2.95337e-009 -7.52165e-010 -1.44001e-009 1.72561e-009 -4.53527e-010 -8.07161e-010 7.73091 5.47488 0.417314 1.7256e-009 -4.53526e-010 -8.07151e-010 2.90554 0.965183 0.102902 1.72561e-009 -4.53525e-010 -8.0715e-010 10.2786 0.731801 0.0259123 1.7256e-009 -4.53525e-010 -8.07142e-010 2.22167 -0.733487 -0.20892 1.97582e-015 2.53161e-013 2.39202e-014 -68.3406 11.0571 -4.63806 7.28337 -2.8132 -12.6415 0.672131 25.0846 -3.7216 -1.79731e-009 -2.43403e-010 1.45864e-009 -3.06165e-009 -3.76013e-010 2.56362e-009 -1.79731e-009 -2.43406e-010 1.45865e-009 -7.73091 5.47488 -0.417314 -1.79731e-009 -2.43413e-010 1.45863e-009 -2.90554 0.965183 -0.102902 -1.79731e-009 -2.43408e-010 1.45864e-009 -10.2786 0.731801 -0.0259123 -1.7973e-009 -2.43408e-010 1.45863e-009 -2.22167 -0.733487 0.20892 -2.03217e-016 0 -3.88251e-019 -1.93073 -16.3575 -6.13 -0.147044 19.1521 0.243761 1.37129 -16.3065 4.45865 2.03217e-016 0 3.88251e-019 -2.4726 -22.6924 0.890664 -0.070298 27.8481 -0.44643 -0.851435 -9.87295 -8.70694 
1.89916 80.7427 190.661 2.2879 -12.2837 177.052 -6.65969 -14.442 -3.96027 1.12087 7.69753 -1.22836 -5.10794 19.2271 -2.30355 15.3281 -53.1514 4.29103 -0 0 0 -0 0 0 -3.70147e-015 2.56036e-013 3.74709e-014 84.9941 3.53683 -2.57443 -11.3599 -5.00972 20.3777 -2.06392 37.2097 6.12592 1.62135e-009 -4.34162e-010 -8.12832e-010 2.7737e-009 -7.19747e-010 -1.44825e-009 1.62136e-009 -4.34162e-010 -8.12845e-010 7.73091 5.47488 0.417314 1.62135e-009 -4.34161e-010 -8.12835e-010 2.90554 0.965183 0.102902 1.62136e-009 -4.34161e-010 -8.12834e-010 10.2786 0.731801 0.0259123 1.62135e-009 -4.34161e-010 -8.12826e-010 2.22167 -0.733487 -0.20892 -3.75318e-015 2.56032e-013 3.72721e-014 -83.2497 12.1367 -5.46861 8.53515 -3.29757 -15.0816 1.41251 31.6798 -4.97558 -1.83891e-009 -2.39575e-010 1.45949e-009 -3.13569e-009 -3.69272e-010 2.5627e-009 -1.83892e-009 -2.39579e-010 1.4595e-009 -7.73091 5.47488 -0.417314 -1.83891e-009 -2.39587e-010 1.45948e-009 -2.90554 0.965183 -0.102902 -1.83892e-009 -2.39581e-010 1.45949e-009 -10.2786 0.731801 -0.0259123 -1.8389e-009 -2.39581e-010 1.45949e-009 -2.22167 -0.733487 0.20892 -2.03217e-016 0 -3.88251e-019 -2.10635 -19.3995 -7.64849 -0.210249 23.7982 0.322388 2.22444 -20.6744 5.58409 2.03217e-016 0 3.88251e-019 -2.09578 -25.0236 0.997781 -0.0807887 30.5027 -0.450299 -1.41668 -11.1078 -10.6825 
